<svg xmlns="http://www.w3.org/2000/svg" width="512" height="512" viewBox="0 0 512 512">
  <defs>
    <linearGradient id="grad1" x1="0%" y1="0%" x2="100%" y2="100%">
      <stop offset="0%" style="stop-color:#007AFF;stop-opacity:1" />
      <stop offset="100%" style="stop-color:#5856D6;stop-opacity:1" />
    </linearGradient>
  </defs>
  <rect width="512" height="512" rx="80" ry="80" fill="url(#grad1)"/>
  <g transform="translate(96, 96) scale(0.63)">
    <!-- Neural Network Representation -->
    <circle cx="160" cy="80" r="24" fill="white" opacity="0.9"/>
    <circle cx="160" cy="160" r="24" fill="white" opacity="0.9"/>
    <circle cx="160" cy="240" r="24" fill="white" opacity="0.9"/>
    <circle cx="160" cy="320" r="24" fill="white" opacity="0.9"/>
    <circle cx="160" cy="400" r="24" fill="white" opacity="0.9"/>
    
    <circle cx="320" cy="120" r="24" fill="white" opacity="0.9"/>
    <circle cx="320" cy="200" r="24" fill="white" opacity="0.9"/>
    <circle cx="320" cy="280" r="24" fill="white" opacity="0.9"/>
    <circle cx="320" cy="360" r="24" fill="white" opacity="0.9"/>
    
    <circle cx="480" cy="160" r="24" fill="white" opacity="0.9"/>
    <circle cx="480" cy="240" r="24" fill="white" opacity="0.9"/>
    <circle cx="480" cy="320" r="24" fill="white" opacity="0.9"/>
    
    <!-- Connections -->
    <line x1="160" y1="80" x2="320" y2="120" stroke="white" stroke-width="4" opacity="0.5"/>
    <line x1="160" y1="80" x2="320" y2="200" stroke="white" stroke-width="4" opacity="0.5"/>
    <line x1="160" y1="80" x2="320" y2="280" stroke="white" stroke-width="4" opacity="0.5"/>
    
    <line x1="160" y1="160" x2="320" y2="120" stroke="white" stroke-width="4" opacity="0.5"/>
    <line x1="160" y1="160" x2="320" y2="200" stroke="white" stroke-width="4" opacity="0.5"/>
    <line x1="160" y1="160" x2="320" y2="280" stroke="white" stroke-width="4" opacity="0.5"/>
    
    <line x1="160" y1="240" x2="320" y2="200" stroke="white" stroke-width="4" opacity="0.5"/>
    <line x1="160" y1="240" x2="320" y2="280" stroke="white" stroke-width="4" opacity="0.5"/>
    <line x1="160" y1="240" x2="320" y2="360" stroke="white" stroke-width="4" opacity="0.5"/>
    
    <line x1="160" y1="320" x2="320" y2="280" stroke="white" stroke-width="4" opacity="0.5"/>
    <line x1="160" y1="320" x2="320" y2="360" stroke="white" stroke-width="4" opacity="0.5"/>
    
    <line x1="160" y1="400" x2="320" y2="360" stroke="white" stroke-width="4" opacity="0.5"/>
    
    <line x1="320" y1="120" x2="480" y2="160" stroke="white" stroke-width="4" opacity="0.5"/>
    <line x1="320" y1="120" x2="480" y2="240" stroke="white" stroke-width="4" opacity="0.5"/>
    
    <line x1="320" y1="200" x2="480" y2="160" stroke="white" stroke-width="4" opacity="0.5"/>
    <line x1="320" y1="200" x2="480" y2="240" stroke="white" stroke-width="4" opacity="0.5"/>
    <line x1="320" y1="200" x2="480" y2="320" stroke="white" stroke-width="4" opacity="0.5"/>
    
    <line x1="320" y1="280" x2="480" y2="240" stroke="white" stroke-width="4" opacity="0.5"/>
    <line x1="320" y1="280" x2="480" y2="320" stroke="white" stroke-width="4" opacity="0.5"/>
    
    <line x1="320" y1="360" x2="480" y2="320" stroke="white" stroke-width="4" opacity="0.5"/>
    
    <!-- Apple Silicon Symbol in Center -->
    <path d="M280,240 C280,213.49 301.49,192 328,192 C354.51,192 376,213.49 376,240 C376,266.51 354.51,288 328,288 C301.49,288 280,266.51 280,240 Z" fill="#FF375F" opacity="0.9"/>
    <path d="M316,228 L340,228 L340,252 L316,252 Z" fill="white"/>
  </g>
</svg>